<svg xmlns="http://www.w3.org/2000/svg" id="prefix__Layer_1" x="0" y="0" enable-background="new 0 0 512 512" version="1.1" viewBox="0 0 512 512" xml:space="preserve">
    <style>
        .prefix__st0{fill:#2d527c}.prefix__st1{fill:#cee8fa}.prefix__st2{fill:#f0bf5f}
    </style>
    <path d="M303.6 453.1H162.3C91 453.1 33 395.1 33 323.8V201.2c0-8 6.5-14.4 14.4-14.4s14.4 6.5 14.4 14.4v122.7c0 55.4 45 100.4 100.4 100.4h141.3c8 0 14.4 6.5 14.4 14.4.1 8-6.3 14.4-14.3 14.4zM387.7 446.7c-6 0-11.5-3.7-13.6-9.7-2.6-7.5 1.3-15.7 8.8-18.4 40.2-14.1 67.2-52.2 67.2-94.8v-14.5c0-8 6.5-14.4 14.4-14.4s14.4 6.5 14.4 14.4v14.5c0 54.8-34.7 103.9-86.5 122-1.5.6-3.1.9-4.7.9z" class="prefix__st0"/>
    <path d="M468.7 248.8H43.3c-15.9 0-28.8-12.9-28.8-28.8s12.9-28.8 28.8-28.8h425.5c15.9 0 28.8 12.9 28.8 28.8s-12.9 28.8-28.9 28.8z" class="prefix__st1"/>
    <path d="M468.7 263.2H43.3C19.4 263.2 0 243.8 0 219.9s19.4-43.3 43.3-43.3h425.5c23.9 0 43.3 19.4 43.3 43.3s-19.5 43.3-43.4 43.3zM43.3 205.5c-8 0-14.4 6.5-14.4 14.4s6.5 14.4 14.4 14.4h425.5c8 0 14.4-6.5 14.4-14.4s-6.5-14.4-14.4-14.4H43.3z" class="prefix__st0"/>
    <circle cx="113.9" cy="455" r="25.2" class="prefix__st1"/>
    <path d="M113.9 494.7c-21.9 0-39.7-17.8-39.7-39.7s17.8-39.7 39.7-39.7 39.7 17.8 39.7 39.7-17.8 39.7-39.7 39.7zm0-50.5c-6 0-10.8 4.9-10.8 10.8s4.9 10.8 10.8 10.8 10.8-4.9 10.8-10.8-4.8-10.8-10.8-10.8z" class="prefix__st0"/>
    <circle cx="398.1" cy="455" r="25.2" class="prefix__st1"/>
    <path d="M398.1 494.7c-21.9 0-39.7-17.8-39.7-39.7s17.8-39.7 39.7-39.7 39.7 17.8 39.7 39.7-17.9 39.7-39.7 39.7zm0-50.5c-6 0-10.8 4.9-10.8 10.8s4.9 10.8 10.8 10.8 10.8-4.9 10.8-10.8-4.9-10.8-10.8-10.8z" class="prefix__st0"/>
    <path d="M323.4 88.7H188.6c-8 0-14.4-6.5-14.4-14.4s6.5-14.4 14.4-14.4h134.9c8 0 14.4 6.5 14.4 14.4s-6.5 14.4-14.5 14.4z" class="prefix__st2"/>
    <path d="M328.1 116.8c-8 0-14.4-6.5-14.4-14.4V31.7c0-8 6.5-14.4 14.4-14.4s14.4 6.5 14.4 14.4v70.7c0 8-6.4 14.4-14.4 14.4z" class="prefix__st2"/>
    <path d="M354.1 46.2h-51.9c-8 0-14.4-6.5-14.4-14.4s6.5-14.4 14.4-14.4h51.9c8 0 14.4 6.5 14.4 14.4s-6.5 14.4-14.4 14.4zM183.9 116.8c-8 0-14.4-6.5-14.4-14.4V31.7c0-8 6.5-14.4 14.4-14.4s14.4 6.5 14.4 14.4v70.7c0 8-6.4 14.4-14.4 14.4z" class="prefix__st2"/>
    <path d="M209.8 46.2h-51.9c-8 0-14.4-6.5-14.4-14.4s6.5-14.4 14.4-14.4h51.9c8 0 14.4 6.5 14.4 14.4s-6.4 14.4-14.4 14.4zM256 150c-8 0-14.4-6.5-14.4-14.4V75.7c0-8 6.5-14.4 14.4-14.4s14.4 6.5 14.4 14.4v59.9c0 7.9-6.4 14.4-14.4 14.4z" class="prefix__st2"/>
    <path d="M195.7 334.8H118c-9.8 0-17.8-8-17.8-17.8V191h113.2v126c0 9.9-7.9 17.8-17.7 17.8z" class="prefix__st1"/>
    <path d="M195.7 349.3H118c-17.7 0-32.2-14.4-32.2-32.2v-126c0-8 6.5-14.4 14.4-14.4h113.2c8 0 14.4 6.5 14.4 14.4v126c.1 17.7-14.4 32.2-32.1 32.2zm-81-143.8v111.6c0 1.8 1.5 3.3 3.3 3.3h77.7c1.8 0 3.3-1.5 3.3-3.3V205.5h-84.3z" class="prefix__st0"/>
</svg>
