<svg xmlns="http://www.w3.org/2000/svg" id="prefix__Layer_1" x="0" y="0" enable-background="new 0 0 512 512" version="1.1" viewBox="0 0 512 512" xml:space="preserve">
    <style>
        .prefix__st0{fill:#2d527c}.prefix__st1{fill:#cee8fa}.prefix__st2{fill:#f0bf5f}
    </style>
    <path d="M465.9 475.3h-70.4c-7.5 0-13.6-6.1-13.6-13.6s6.1-13.6 13.6-13.6h70.4c10.5 0 19-8.5 19-19V182.2c0-10.5-8.5-19-19-19h-328c-10.5 0-19 8.5-19 19v247.1c0 10.5 8.5 19 19 19h183c7.5 0 13.6 6.1 13.6 13.6s-6.1 13.6-13.6 13.6h-183c-25.4 0-46.1-20.7-46.1-46.1V182.2c0-25.4 20.7-46.1 46.1-46.1h328c25.4 0 46.1 20.7 46.1 46.1v247.1c0 25.3-20.7 46-46.1 46z" class="prefix__st0"/>
    <path d="M190.7 412c-13 0-23.7-10.7-23.7-23.7V223.1c0-13 10.7-23.7 23.7-23.7s23.7 10.7 23.7 23.7v165.2c-.1 13-10.7 23.7-23.7 23.7z" class="prefix__st1"/>
    <path d="M190.7 425.5c-20.5 0-37.2-16.7-37.2-37.2V223.1c0-20.5 16.7-37.2 37.2-37.2s37.2 16.7 37.2 37.2v165.2c0 20.5-16.7 37.2-37.2 37.2zm0-212.5c-5.6 0-10.1 4.5-10.1 10.1v165.2c0 5.6 4.5 10.1 10.1 10.1s10.1-4.5 10.1-10.1V223.1c0-5.6-4.6-10.1-10.1-10.1z" class="prefix__st2"/>
    <path d="M301.9 412c-13 0-23.7-10.7-23.7-23.7V223.1c0-13 10.7-23.7 23.7-23.7s23.7 10.7 23.7 23.7v165.2c0 13-10.6 23.7-23.7 23.7z" class="prefix__st1"/>
    <path d="M301.9 425.5c-20.5 0-37.2-16.7-37.2-37.2V223.1c0-20.5 16.7-37.2 37.2-37.2s37.2 16.7 37.2 37.2v165.2c.1 20.5-16.6 37.2-37.2 37.2zm0-212.5c-5.6 0-10.1 4.5-10.1 10.1v165.2c0 5.6 4.5 10.1 10.1 10.1s10.1-4.5 10.1-10.1V223.1c0-5.6-4.5-10.1-10.1-10.1z" class="prefix__st2"/>
    <path d="M413.2 412c-13 0-23.7-10.7-23.7-23.7V223.1c0-13 10.7-23.7 23.7-23.7s23.7 10.7 23.7 23.7v165.2c0 13-10.7 23.7-23.7 23.7z" class="prefix__st1"/>
    <path d="M413.2 425.5c-20.5 0-37.2-16.7-37.2-37.2V223.1c0-20.5 16.7-37.2 37.2-37.2s37.2 16.7 37.2 37.2v165.2c0 20.5-16.7 37.2-37.2 37.2zm0-212.5c-5.6 0-10.1 4.5-10.1 10.1v165.2c0 5.6 4.5 10.1 10.1 10.1s10.1-4.5 10.1-10.1V223.1c0-5.6-4.5-10.1-10.1-10.1z" class="prefix__st2"/>
    <path d="M105.4 230.5H58.3c-7.5 0-13.6-6.1-13.6-13.6s6.1-13.6 13.6-13.6h47.1c7.5 0 13.6 6.1 13.6 13.6s-6.1 13.6-13.6 13.6zM105.4 408H58.3c-7.5 0-13.6-6.1-13.6-13.6s6.1-13.6 13.6-13.6h47.1c7.5 0 13.6 6.1 13.6 13.6s-6.1 13.6-13.6 13.6z" class="prefix__st0"/>
    <path d="M47.4 251.5c-7.5 0-13.6-6.1-13.6-13.6v-145c0-7.5 6.1-13.6 13.6-13.6S61 85.5 61 92.9v145c0 7.5-6.1 13.6-13.6 13.6z" class="prefix__st2"/>
    <path d="M47.4 475.3c-7.5 0-13.6-6.1-13.6-13.6v-156c0-7.5 6.1-13.6 13.6-13.6S61 298.2 61 305.7v156c0 7.5-6.1 13.6-13.6 13.6z" class="prefix__st0"/>
    <path d="M13.6 50.3H81.39999999999999V123.5H13.6z" class="prefix__st1"/>
    <path d="M81.3 137H13.6C6.1 137 0 130.9 0 123.4V50.3c0-7.5 6.1-13.6 13.6-13.6h67.8c7.5 0 13.6 6.1 13.6 13.6v73.2c-.1 7.4-6.2 13.5-13.7 13.5zm-54.2-27.1h40.7V63.8H27.1v46.1z" class="prefix__st0"/>
</svg>
